<?xml version="1.0" encoding="UTF-8"?>
<svg id="PRINT" xmlns="http://www.w3.org/2000/svg" xmlns:xlink="http://www.w3.org/1999/xlink" viewBox="0 0 194.46 276.91">
  <defs>
    <style>
      .cls-1 {
        fill: none;
      }

      .cls-2 {
        clip-path: url(#clippath);
      }

      .cls-3 {
        fill: #e6e6e6;
      }

      .cls-4 {
        fill: #db2777;
      }

      .cls-5 {
        fill: #101214;
      }
    </style>
    <clipPath id="clippath">
      <rect class="cls-1" x="13.18" y="6.01" width="170.07" height="257.96"/>
    </clipPath>
  </defs>
  <g class="cls-2">
    <path class="cls-3" d="m198.54,175.46c-6.64,3.77-60.62,63.48-144.34,60.44-83.72-3.04-101.79-45.52-213.42-19.57l2.17,68.61,361.89-11.47-6.31-98.01Z"/>
    <path class="cls-5" d="m206.34,184.42c-6.76,3.56-62.6,61.53-146.18,55.84-83.58-5.69-100.3-48.73-212.69-26.32v68.64H209.54l-3.2-98.17Z"/>
    <path class="cls-4" d="m206.62,196.29c-6.76,3.56-54.14,49.52-137.87,52.17-95,3-108.61-45.05-221-22.64v68.64H209.82l-3.2-98.17Z"/>
    <path class="cls-5" d="m-62.72,89.37c6.99-3.64,64.91-63.18,151.14-56.89,86.23,6.29,103.26,50.79,219.36,28.23l.35-70.84-373.66-1.83,2.81,101.32Z"/>
    <path class="cls-3" d="m-70.43,79.83c7.1-3.41,66.88-61.1,152.87-52.07,85.99,9.02,101.6,54.04,218.36,35.17l2.59-70.79L-70.03-21.53l-.4,101.36Z"/>
    <path class="cls-4" d="m-70.3,76.17C-63.2,72.75-3.42,15.07,82.57,24.09c85.99,9.02,101.6,54.04,218.36,35.17l2.59-70.79L-69.9-25.2l-.4,101.36Z"/>
  </g>
</svg>